<svg enable-background="new 0 0 2476.7 2410.2" viewBox="0 0 2476.7 2410.2" xmlns="http://www.w3.org/2000/svg"><g clip-rule="evenodd" fill-rule="evenodd"><path d="m1605.5 480.3s111.3 31.6 158.8 50.3c47.6 18.4 163.8 26.3 214.1-26.6 0 0 8 87.6-45 100.7 0 0 66-2.9 113.8 13.1 47.5 15.7 118.9 52.9 182.3 29.2 0 0-58.1 73.9-92.5 60.7 0 0 129.6 39.8 187.7-18.6 0 0-8 79.6-60.9 103.2 0 0 47.7 13.3 68.8 31.8 21.2 18.5 103.1 39.7 124.2-10.5 0 0 21.2 116.4-97.8 132.4 0 0 140.1 47.6 97.8 230.2l-60.8-55.6s31.8 74.1 10.6 124.3c-21.1 50.3-2.7 124.4 23.7 132.2 0 0-68.6 37.2-84.5-7.8 0 0 18.5 108.3-15.9 155.9-34.3 47.9-29 137.8-29 137.8-18.5-7.9-37.2-39.7-37.2-39.7-29.1 45-5.2 126.9-5.2 126.9-45-7.9-66.1-58.2-66.1-58.2 2.6 158.8-129.6 278-129.6 278l-13.1-68.8c5.3 42.2-37 121.8-74.1 140.1-36.9 18.7-26.3 71.5-26.3 71.5-29.1-15.9-34.4-55.5-34.4-55.5-222.1 338.8-491.6 240.8-491.6 240.8 36.9 44.9 0 82 0 82s2.5-63.5-171.9-50.4c-174.5 13.3-288.2-92.4-288.2-92.4l26.5 76.7c-105.7-15.9-193-132.4-193-132.4 2.6 76.9-26.4 87.4-26.4 87.4-5.5-76.9-116.3-116.4-158.6-135-42.4-18.6-79.4-95.3-79.4-95.3l2.6 74.1c-87.4-55.5-95.1-172-95.1-172s5.3 79.5-58.1 90c0 0 23.8-18.5-18.6-97.9-42.3-79.4-150.5-84.8-153.4-261.9l-47.5 84.7s-68.8-169.5-13.3-243.5c0 0-60.7 15.9-126.9-34.5 0 0 129.6-68.7 158.6-140.1l-47.5 18.6s-7.9-108.6 113.7-150.9c0 0-63.5-2.7-95.2-53 0 0 81.9-10.6 179.8-121.8l-53-7.9s74.9-39.9 100.5-74.1c39.7-53 124.4-116.4 155.9-121.7 31.8-5.2 1070.7-346.5 1070.7-346.5" fill="#e34331"/><path d="m1296.2 2316.4c61.3 0 103.5 11.3 125 33.8 1.4 1.4 2.7 2.9 3.9 4.5 4.4-12 5.1-29.2-11.1-49l-27.7-33.5 41 14.9c.3 0 35.1 12.4 88.9 12.4 103 0 254.2-43.2 388.8-248.5l17.3-26.6 4.4 31.6c0 .2 2 14.5 9.9 27.8 2.1-18.7 10.1-40.9 33.7-52.7 33-16.7 72.3-90.9 67.6-128.2l23.4-3.8 8.9 46.6c34-36.7 112.2-134.1 110.3-253.2l22.9-4.9c.1.6 13.1 30.3 38.7 44.5-5.4-28.9-10.4-80.6 11.8-115l10.4-16.3 9.9 16.8c3.2 5.5 8.6 13.5 14.6 20.5.8-31.8 6.6-85.1 31.4-119.3 31.1-43 14-146.2 13.9-147.2l22.9-5.9c2.2 6.8 7 14.4 22.8 14.4 9 0 19.1-2.7 27.7-5.6-3.6-4.6-6.6-9.5-8.9-14.9-14-29.5-19.5-79.8-3.1-119 18.9-45.1-10.3-114.3-10.5-115.1l18.9-13.5 45.3 41.4c25.1-152.7-89.1-194.2-94.2-196l2.2-23.1c32.2-4.3 56-16.7 70.7-37.1 12.4-17 16.7-36.7 17.9-52.1-11.9 7.9-27.3 11.9-45.6 11.9-31.6 0-62.4-12.1-75.6-23.6-15.5-13.8-51.6-25.7-64.1-29.2l-31.6-8.9 29.9-13.4c27.1-12.2 40.8-42.3 47.6-65-21 10.8-47.5 16.2-78.9 16.2-30.2-.4-60.3-4.6-89.5-12.5-1.9-.4-3.9-.8-5.4-1.6l7.6-22.6 3 .9c13.9 2.2 34.8-13.7 52.6-31.1-3.9.3-7.7.4-11.6.4-41.1 0-81.8-15.5-114.8-27.8-9.4-3.7-18.3-7-26.4-9.8-34.6-11.4-80.7-12.6-98.9-12.6-6.5 0-10.3.2-10.6.2l-3.3-23.5c26.6-6.8 33.9-40.3 35.8-63.8-36.3 23.2-84.5 27.2-112.8 27.2-34.2 0-70-5.5-93.5-14.9-41.8-16.2-134.9-43.4-154.1-48.8-76.9 25.2-1037.3 340.6-1068.8 346-26.2 4.2-107.7 62.5-148.5 117-16.4 21.7-49.9 44.9-74.6 60.4l40.9 6-14.3 16.4c-73.1 82.7-137.3 111.3-168.2 121 29.7 31.6 74.6 33.8 75.1 33.8l3.3 23.3c-83.6 28.9-101.2 91.7-104.8 121.8l56.3-22-10.5 25.7c-24.1 59.4-110.3 115.1-147.1 136.6 31.5 19.4 60.4 23.9 80.3 23.9 13 0 21.1-1.9 21.1-1.9l32.7-8.3-20 27c-39.1 52.1-10.1 159.8 5.8 207.7l56.6-100.4.8 44.2c1.7 112.9 47.2 151.9 91.3 189.5 22.3 18.9 45.5 38.6 60.4 67 21.5 40.2 27.2 66.6 26.6 84.1 30.4-19.7 27.9-66.6 27.8-69.6l23.7-1.7c.2.8 7.3 93.3 70.5 148.5l-1.8-49.6 22.8-5.5c9.7 20.2 41.9 75.9 73.2 89.5l12.4 5.2c45.8 19.5 126.3 53.3 148 114.6 4.8-11.1 9-29.8 7.9-60.8l-1.2-37.7 22.6 30.1c.8 1.1 74.6 98.2 165.3 123.3l-19.6-56.7 19.4-12.5c.9.9 99.4 90.5 249.9 90.5 9.6 0 19.4-.3 29.2-1 16.5-1.4 32-1.8 46.1-1.8zm114 93.8 1-30.2c-.1-2-5-40-114.9-40-13.6 0-28.4.7-44 2.1-93.7 6.5-186.9-18.5-264.9-71l20 57.8-19.4-3c-79.4-11.9-147.5-76.3-180.2-112.6-5.3 54.9-30.1 65.7-33.4 67l-14.9 5.5-1.1-15.9c-4.3-62.8-91.8-99.5-138.7-119.4-4.7-2.1-8.9-3.8-12.7-5.3-23.8-10.5-45.6-36.5-61-59.5l1.7 49.5-18.9-12.2c-50.8-32.2-76.1-83-88.7-122.8-10.1 20.5-27.5 37.8-56.3 42.6l-9.4-21.3-.8.8c4-4.6 8.3-28.8-20.7-83.7-13.1-24.4-33.3-41.6-55.1-60.1-40.5-34.5-85.7-73.1-97.1-166.7l-40 71.3-9.4-22.8c-2.6-6.7-59.6-149.5-23.9-233.7-26.4.5-68.3-5.8-112.2-39.3l-15-11 16.4-8.7c1.2-.8 93.3-50.1 136.5-106.3l-30.5 11.9-1.2-15.9c0-1.3-5.7-96 87.2-147.8-22-7.4-48.7-22.2-66.9-50.7l-9.9-15.7 18.5-2.3c.7 0 71-10.6 157.5-101.3l-66.4-10.2 31.8-17c.7-.3 72.6-38.9 96.5-70.7 39.3-52.9 126.5-120.2 163.3-126.5 27.3-4.7 780.9-251.4 1068.8-346.1l3.5-1.1 3.5.9c4.4 1.3 112.2 32.2 159.5 50.6 21.1 8.2 53.6 13.1 85.1 13.1 30.3 0 85.9-4.4 116.2-36.7l18.1-19.1 2.4 26.2c.3 3.1 4.9 57.2-19.8 90.3 24.2 1.3 54.7 4.7 80.5 13.3 8.6 2.8 17.6 6.5 27.2 9.9 32.7 12.5 69.6 26.4 106.3 26.4 14.9 0 28.3-2.3 40.9-7l39.8-14.8-26.2 33.4c-3.5 4.7-26.6 33.2-53.2 51.5 12.8 1.9 27.2 3.3 42.1 3.3 40 0 69.9-9.7 88.6-28.2l23.6-23.8-3.3 33.3c-.3 3.1-6.9 64.4-45.6 98.5 16.1 6 36.8 15.1 49.5 26.2 8.6 7.5 34 17.8 59.9 17.8 23.6 0 38.8-8 45.5-24l15.6-36.9 6.9 39.4c.6 2.3 9.8 56.8-21.1 99.5-13.6 18.5-32.7 32.2-54.6 39.3 41.3 26.8 107.2 92.8 75.6 228.6l-4.5 19.9-43.5-39.9c6.1 26.9 9.3 61.8-2.7 90.7-13.6 32.2-8.7 75.4 2.8 99.8 4.8 10.8 10.1 15.6 13.4 16.6l27.6 8.3-25.3 13.5c-1.3.7-29.6 15.8-56.1 15.8-6.8 0-13-.9-18.4-2.8 2.8 37.4 2.7 97.5-21.9 131.4-31.6 43.8-26.9 129.3-26.9 130.1l1 19.2-17.5-7.6c-11.6-4.9-22.5-16.2-30.3-26.6-12.4 41.5 3.9 99 4 99.8l5.3 18.3-18.7-3.4c-23.9-4.1-41.6-18.2-53.8-32.3-15.5 142.8-126.8 244.5-131.7 249.2l-15.7 14-5.7-29.4c-15.3 37.9-42.4 75.4-68.6 88.6-28.6 14.2-20.1 57.9-20.1 58.3l5 25-22.4-12.2c-16.9-9.1-27.1-24.8-32.9-38.5-137 196.4-289.2 238.4-394.4 238.4-28.6 0-52-3.2-68.7-6.6 8.8 25.1 2.6 52.9-16 71.9z" fill="#352216"/><path d="m1642.6 355.2c0 189.6-153.5 343.4-342.9 343.4-189.6-.1-343.2-153.9-343.1-343.4 0-189.5 153.6-343.2 343.1-343.2 189.4.1 342.9 153.8 342.9 343.2" fill="#fff"/><path d="m1623.8 243.3c38.6 161.6-61.2 323.8-222.8 362.4-22.8 5.4-46.2 8.2-69.6 8.2-53.4.1-105.9-14.1-151.9-41.4l-52.6 79.3c52.3 30.8 112 47 172.8 46.9 189.5 0 342.9-153.9 342.9-343.5-.1-39.2-6.7-76.8-18.8-111.9" fill="#c5e6f0"/><path d="m1299.7 23.9c-182.8.3-330.9 148.5-331 331.4 0 182.8 148.4 331.6 331 331.6 182.4 0 331-148.8 331-331.6 0-182.7-148.7-331.4-331-331.4m0 686.7c-195.8 0-355-159.5-355-355.4 0-195.7 159.2-355.2 355-355.2 195.6 0 354.8 159.5 354.8 355.3 0 195.9-159.3 355.3-354.8 355.3" fill="#352216"/><path d="m1396.8 369.1c.1 74.5-60.3 134.9-134.8 135s-134.9-60.3-135-134.8c0-74.5 60.3-134.9 134.8-135s135 60.3 135 134.8" fill="#352216"/><path d="m1047.7 545.7c0 189.7-153.4 343.6-342.9 343.6-189.6-.2-343.2-154-343-343.6 0-189.5 153.5-343.1 343-343.2 189.5.1 343 153.8 342.9 343.2" fill="#fff"/><path d="m1029 433.9c38.5 161.6-61.3 323.8-222.9 362.3-22.8 5.4-46.1 8.2-69.6 8.2-166.1 0-300.7-134.7-300.7-300.8v-.1c-.1-160.1 125.2-292.3 285-300.7-189.4-8.7-349.9 137.8-358.6 327.1-.2 5.2-.4 10.5-.4 15.7 0 189.7 153.5 343.7 342.9 343.7 189.5 0 342.9-153.9 342.9-343.7.1-39-6.4-76.6-18.6-111.7" fill="#c5e6f0"/><path d="m897 551.7c.1 74.5-60.3 135-134.8 135.1 0 0 0 0-.1 0-74.5-.2-134.7-60.7-134.6-135.1 0-74.4 60.3-134.7 134.7-134.7s134.8 60.2 134.8 134.7m-332 1052c-1.3 0-2.5-.1-3.8-.2l-17.4-.7 17.1-41c-103.8 36-169.3 38.6-199.7 8.1-27.9-27.9-12.6-70.4-11.9-72.3 2.1-6.1 8.8-9.3 14.8-7.1.1 0 .2.1.2.1 6.3 2.2 9.4 9.3 7.2 15.3-.3.5-10.6 30.3 6.3 47.2 14.4 14.2 59.3 29.9 200.2-22.8l26.1-9.7-24.7 58.6c39.9-2.8 141.2-18.3 238.5-99.8l22.8-18.9-8.4 73.9c36.2-22.2 112.8-67.1 178.6-96.1l18.2-8-2.8 38.8c57.4-20 168.1-64.2 193.9-100.8l3.7-5.7 6.7.6c44.7 2.5 117.2 2.5 152.4-5.9l-37.7-37.8 30.7 1.4c1.6.1 150.4 6.5 212.7 1.8-5-13.4-8.7-27.2-11.1-41.3l-1.8-15 15 1.6c1.6.3 147.6 15.1 249-36.4-14.4-6.3-31.1-14.5-39.3-22.6l-20.1-20.4h28.6c1.4 0 135.2-.6 218.2-38.3l-81.3-26.1 42.7-9.5c49.2-11 179.1-50.5 190.9-100.1 3.5-14.9-5.4-31.3-26.4-48.4-5.1-4.1-5.9-11.5-1.9-16.6.1-.1.1-.2.2-.3 4.1-5 11.6-5.8 16.6-1.6 28.7 23.3 40.4 47.6 34.6 72.4-12.8 54.3-111 90.5-168.7 107.3l51.1 16.4-21.1 13.6c-58.7 37.9-156.4 49.7-212.2 53.1 6.9 3.2 13.9 5.7 19.4 7.6l22.7 8.2-20.2 13.2c-90.2 58.6-223.3 56.2-269.3 53.4 4.4 17.1 11.9 35 12 35.3l5.8 13.9-15.1 2.4c-38.4 6.1-148 3.2-201.8 1.2l18.4 18.4-12.9 7.9c-33.3 20.4-144.9 16.6-175.1 15.3-45.9 53.8-211.5 107.7-218.7 110.2l-16.9 5.3 2.5-34.4c-83.9 39.4-177.5 98.5-178.5 99.3l-21.1 13.3 7.6-65c-112.6 82.9-222.2 87.7-245.5 87.7" fill="#352216"/><path d="m2004.8 1189.5c-50.3 134.9-145.4 587.5-539.3 714.4-393.9 127-848.7-304.3-848.7-304.3l203.6-100.7-2.6 58.3 198.3-108.5-2.8 36.9s171.9-42.1 216.9-111.1c0 0 156 10.5 174.5-13.3l-29.1-29.2h229.8l-15.7-52.8s206.2 15.9 267-47.6l-21.2-29.1 169.3-29.1zm-1300-975.1c-182.9.2-331 148.5-331.1 331.4 0 182.9 148.5 331.5 331.1 331.5 183.1-4.7 327.6-157 322.9-340-4.6-176.4-146.5-318.4-322.9-322.9m0 686.7c-195.7 0-355-159.5-355-355.4 0-195.8 159.2-355.3 355-355.3 195.7 0 354.9 159.5 354.9 355.3 0 196-159.2 355.4-354.9 355.4" fill="#352216"/><path d="m1475.8 866.2c18.7 202.4-106.6 379.4-280.1 395.7-173.4 16.1-329.5-134.7-348.4-337-18.8-202.4 106.7-379.3 280.2-395.6 173.5-16.2 329.5 134.7 348.3 336.9" fill="#e67826"/><path d="m1248.4 1154.2c-154.8 14.5-293.9-120-310.6-300.4-12.5-134.1 46.1-255.9 140.6-315.3-147.5 41.8-247.9 203.7-231.2 386.4 19 202.3 174.9 353.1 348.4 337 140-13.1 248.7-131 275.7-282.2-41.2 96.2-123.1 165.3-222.9 174.5" fill="#e24e26"/><path d="m1152.8 540c-7.9 0-16.2.4-24.2 1.3-80.4 7.5-152.8 51-203.6 123-51.3 72.2-74.6 164.5-65.9 259.5 17.2 183.5 153.8 327.5 311.1 327.5 8.2 0 16.3-.4 24.2-1.2 167-15.5 287.6-187 269.5-382.6-17-183.7-153.5-327.5-311.1-327.5m17.4 734.9c-169.6 0-316.5-153.1-334.7-348.9-9.3-100.7 15.6-198.4 70.1-275.6 54.8-77.5 133.4-124.8 220.9-133.1 8.7-.8 17.7-1.1 26.4-1.1 169.6 0 316.6 153.3 334.7 348.9 19.4 208.7-111 391.9-290.8 408.7-8.9.8-17.7 1.1-26.6 1.1" fill="#352216"/></g></svg>