<?xml version="1.0" encoding="utf-8"?>
<!-- Generator: Adobe Illustrator 23.0.1, SVG Export Plug-In . SVG Version: 6.00 Build 0)  -->
<svg version="1.1" id="Layer_1" xmlns="http://www.w3.org/2000/svg" xmlns:xlink="http://www.w3.org/1999/xlink" x="0px" y="0px"
	 viewBox="0 0 300 300" style="enable-background:new 0 0 300 300;" xml:space="preserve">
<style type="text/css">
	.st0{fill:#231F20;}
	.st1{fill:#BBD531;}
	.st2{fill:#FFFFFF;}
	.st3{fill:#80BA3D;}
	.st4{fill:#D42540;}
	.st5{fill:#E66F7B;}
</style>
<g>
	<path class="st0" d="M190.01,188.3c-15.65,11.69-27.71,17.72-42.99,14.9c-15.27-2.83-36.39-22.25-36.39-22.25l-1.46,0.95
		c-3.03,1.1-7.19,3.36-11.66,6.43c-20.97,14.34-41.1,19.07-41.02,20.44c0.07,1.15,23.14,1.62,43.9-4.69
		c-16.48,22.03-32.45,36.04-31.54,37.46c1.1,1.7,28.95-5.57,49.39-24.59c-3.7,22.11-13.54,52.18-12.33,53.14
		c1.17,0.93,21.01-14.8,40.06-44.27c8.7,39.97,19.81,51.25,20.86,50.51c2.11-1.46,6.62-44.67,7.78-51.4
		c21.42,30.23,45.67,36.39,46.67,34.94c0.84-1.22-12.56-23.15-21.54-41.05c25.53,17.08,43.97,13.79,43.95,11.85
		c-0.02-1.91-20.63-8.54-38.94-28.47c-2.8-3.05-9.88-10.22-12.9-12.85L190.01,188.3z"/>
	<path class="st1" d="M98.75,190.73c5-3.22,9.26-6.32,12.02-7.27c13.81,13.15,29.78,22.38,41.35,23.25
		c12.32,0.94,25.99-5.82,38.18-16.04c2.51,2.25,9.36,10.02,12.09,13c5.2,5.66,16.49,16.69,36.46,26.23
		c-12.91,0.76-36.19-11.2-41.1-14.95c-1.01-1.98-1.62-3.1-1.75-3.02c-0.62,0.39,0.91,8.49,10.72,26.08
		c2.97,5.32,10.52,17.57,11.54,19.36c-22.64-7.84-42.82-36.78-44.49-36.39c-2.14,0.49-6.71,43.53-7.89,52
		c-10.31-13.81-18.12-50.42-19.37-50.65c-1.26-0.23-18.18,26.01-38.01,44.31c8.92-25.89,12.63-52.99,11.82-53.41
		c-0.8-0.42-18.55,16.69-47,25.93c6.79-6.53,31.5-36.23,30.9-37.43c-0.6-1.21-22.69,4.48-39.35,5.68
		C80.43,202.65,90.03,196.34,98.75,190.73"/>
</g>
<path class="st0" d="M196.17,186.32c21.07-18.34,38.14-44.94,40.98-64.57c2.75-19.01-10.18-40.72-22.11-50.92
	c3.97-9.77,1.62-28.39-10.24-35.37c-16.91-9.94-34.01-0.13-39.55,7.77c-9.15-3.22-18.38-2.34-24.31-0.38
	c-6.33-8.26-20.9-15.67-35.51-9.26C89.91,40.39,86.77,55.4,88.42,65.31c-12.66,9.22-22.52,24.64-25.2,40.67
	c-2.79,16.7,4.36,37.2,20.24,57.47c3.81,4.86,7.97,9.48,12.34,13.8l1.95,1.88c16.77,15.97,36.17,27.17,50.22,28.25
	c14.96,1.14,31.56-7.06,46.38-19.48L196.17,186.32z"/>
<path class="st2" d="M203.11,38.27c13.36,7.86,11.25,28.57,8.69,33.88c-4.74,1.3-21.46-0.11-32.23-6.68
	c-8.27-5.05-14.6-12.89-13.81-17.93C166.28,44.2,184.14,27.11,203.11,38.27"/>
<path class="st2" d="M106.74,36.58c17.05-7.48,34.45,7.04,35.11,13.67c0.11,1.12-2.59,10.16-19.2,18.54
	c-11.65,5.87-26.23,4.97-28.62,3.55C90.33,70.12,86.77,45.35,106.74,36.58"/>
<path class="st3" d="M86.14,161.58c-15.46-19.74-22.34-39.24-19.66-55.27c2.51-15.07,10.84-29.46,22.51-38.38
	c0.88,3.15,2.27,5.51,3.84,6.44c5.11,3.05,19.16,3.46,31.2-2.62c21.44-10.81,20.28-20.79,20.19-21.74
	c-0.16-1.61-0.83-3.34-1.86-5.09c5.03-1.19,15.62-1.4,21.66,0.39c-0.29,0.64-0.52,1.27-0.61,1.84c-1.09,6.97,6.43,16.2,14.36,21.03
	c11.92,7.26,29.74,7.96,35.3,6.1c0.3-0.38,0.57-0.82,0.85-1.26c7.77,7.09,22.71,29.56,20.02,48.1c-4.69,32.45-50.3,86.17-85.8,83.45
	C130.45,203.23,104.55,185.08,86.14,161.58"/>
<path class="st0" d="M149.66,191.99c30.07,2.56,60.22-48.51,67.09-76.56c1.96-1.05,3.86-2.13,5.7-3.27c0.1,6.64-1.8,13.7-0.81,13.98
	c0.64,0.18,4.53-7.15,4.02-15.69c-0.51-8.54-5.51-12.11-6.07-11.77c-0.63,0.37,1.97,5.06,2.67,10.82
	c-18.63,11.83-49.9,19.36-69.35,20.23c-17.41,0.78-60.31-8.95-73.78-19.51c1.79-7.18,3.77-9.61,3.37-10.02
	c-0.55-0.55-5.1,3.12-6.85,10.35c-2.23,9.22,0.98,14.44,1.47,14.32c0.6-0.16-0.03-4.74,1.45-12.1c1.49,1.12,3.19,2.23,5.1,3.31
	C91.71,155.47,126.15,189.99,149.66,191.99"/>
<path class="st4" d="M149.8,188.71c-21.2-1.81-55.37-36.25-63.35-71.1c9.25,4.72,21.83,8.88,34.36,11.7
	c4.55,16.53,18.37,32.18,31.33,33.56c8.58,0.92,26.22-13.2,31.88-34.87c10.19-2.68,20.52-6.38,29.84-11.07
	C208.45,135.38,180.24,191.32,149.8,188.71"/>
<path class="st5" d="M153.84,132.94c0.33,6.91-0.43,11.65-0.83,11.6c-0.34-0.04-1.26-6.43-1.82-11.49
	c-8.03,0.14-18.1-1.09-28.38-3.28c3.93,12.08,17.31,29.13,29.57,30.43c7.83,0.84,24.66-15.05,29.63-31.7
	C172.02,131.01,162.28,132.5,153.84,132.94"/>
<path class="st0" d="M180.89,50.51c0,0,3.28,1.25,4.7,1.79c-1.6,6.33,5.92,10.4,10.49,6.21c1.28,1.1,2.3,2.26,3.03,3.18
	c1.56,1.99,4.23-0.2,3.2-1.97c-1.08-1.86-2.54-3.36-4.44-5.12c1-5.29-4.61-9-9.32-6.18c-2.14-0.82-4.38-1.49-6.69-1.94
	C179.1,45.93,178.2,49.64,180.89,50.51"/>
<path class="st0" d="M106.01,59.92c0,0,2.87-2.03,4.11-2.9c4.36,4.86,11.93,0.9,11.01-5.25c1.62-0.44,3.16-0.64,4.33-0.74
	c2.53-0.18,2.19-3.62,0.14-3.76c-2.14-0.14-4.2,0.23-6.73,0.83c-3.83-3.77-10.03-1.2-10.33,4.28c-1.87,1.32-3.67,2.8-5.34,4.47
	C101.22,58.86,103.79,61.67,106.01,59.92"/>
</svg>
