<?xml version="1.0" encoding="utf-8"?>
<!-- Generator: Adobe Illustrator 23.0.1, SVG Export Plug-In . SVG Version: 6.00 Build 0)  -->
<svg version="1.1" id="Layer_1" xmlns="http://www.w3.org/2000/svg" xmlns:xlink="http://www.w3.org/1999/xlink" x="0px" y="0px"
	 viewBox="0 0 300 300" style="enable-background:new 0 0 300 300;" xml:space="preserve">
<style type="text/css">
	.st0{fill:#FFFFFF;}
	.st1{fill:#231F20;}
	.st2{fill:#EEE895;}
	.st3{fill:#F6BFA1;}
	.st4{fill:#EA1285;}
	.st5{fill:#F7971F;}
	.st6{fill:#C1AEC8;}
	.st7{fill:#ACCAD7;}
</style>
<g>
	<path class="st0" d="M101.84,217.51c0,3.14-2.55,5.69-5.69,5.69c-3.14,0-5.69-2.55-5.69-5.69c0-3.14,2.55-5.69,5.69-5.69
		C99.29,211.82,101.84,214.37,101.84,217.51"/>
	<path class="st1" d="M101.24,217.51c-0.35,6.56-9.82,6.56-10.17,0c-0.16-2.88,2.43-4.94,5.09-5.09
		C99.03,212.27,101.1,214.86,101.24,217.51c0.04,0.78,1.25,0.78,1.21,0c-0.44-8.11-12.15-8.11-12.59,0
		c-0.19,3.56,3.02,6.12,6.29,6.3c3.56,0.19,6.12-3.02,6.3-6.3C102.49,216.73,101.28,216.74,101.24,217.51"/>
	<path class="st0" d="M196.68,222.65c0,3.14-2.55,5.69-5.69,5.69c-3.14,0-5.69-2.55-5.69-5.69c0-3.14,2.55-5.69,5.69-5.69
		C194.13,216.96,196.68,219.51,196.68,222.65"/>
	<path class="st1" d="M196.07,222.65c-0.35,6.56-9.82,6.56-10.17,0c-0.16-2.88,2.43-4.94,5.09-5.09
		C193.86,217.41,195.93,220,196.07,222.65c0.04,0.78,1.25,0.78,1.21,0c-0.44-8.11-12.15-8.11-12.59,0c-0.19,3.56,3.02,6.12,6.29,6.3
		c3.56,0.19,6.12-3.02,6.3-6.3C197.32,221.87,196.11,221.88,196.07,222.65"/>
	<path class="st0" d="M189.29,229.45c0,3.35-2.72,6.07-6.07,6.07c-3.35,0-6.07-2.72-6.07-6.07c0-3.35,2.72-6.07,6.07-6.07
		C186.57,223.38,189.29,226.1,189.29,229.45"/>
	<path class="st1" d="M188.64,229.45c-0.38,6.99-10.47,6.99-10.85,0c-0.16-3.07,2.6-5.27,5.42-5.42
		C186.29,223.87,188.49,226.63,188.64,229.45c0.04,0.83,1.33,0.83,1.29,0c-0.47-8.64-12.96-8.64-13.42,0
		c-0.2,3.79,3.22,6.52,6.71,6.71c3.79,0.2,6.52-3.22,6.71-6.71C189.98,228.62,188.69,228.63,188.64,229.45"/>
	<path class="st0" d="M109.15,225.49c0,3.52-2.85,6.37-6.37,6.37c-3.52,0-6.37-2.85-6.37-6.37c0-3.52,2.85-6.37,6.37-6.37
		C106.29,219.13,109.15,221.98,109.15,225.49"/>
	<path class="st1" d="M108.47,225.49c-0.39,7.34-10.99,7.34-11.38,0c-0.17-3.22,2.72-5.53,5.69-5.69
		C106,219.63,108.31,222.53,108.47,225.49c0.04,0.87,1.4,0.87,1.35,0c-0.49-9.07-13.6-9.07-14.09,0c-0.21,3.98,3.38,6.85,7.05,7.04
		c3.98,0.22,6.85-3.38,7.04-7.04C109.87,224.62,108.52,224.63,108.47,225.49"/>
	<path class="st0" d="M117.02,233.67c0,3.64-2.95,6.59-6.6,6.59c-3.64,0-6.59-2.95-6.59-6.59c0-3.64,2.95-6.59,6.59-6.59
		C114.07,227.08,117.02,230.03,117.02,233.67"/>
	<path class="st1" d="M116.32,233.67c-0.41,7.6-11.38,7.6-11.79,0c-0.18-3.33,2.82-5.73,5.89-5.89
		C113.76,227.6,116.16,230.6,116.32,233.67c0.05,0.9,1.45,0.9,1.4,0c-0.51-9.39-14.08-9.39-14.59,0c-0.22,4.12,3.5,7.09,7.29,7.29
		c4.12,0.22,7.09-3.5,7.29-7.29C117.77,232.77,116.37,232.77,116.32,233.67"/>
	<path class="st0" d="M180.89,234.46c0,3.52-2.85,6.37-6.37,6.37c-3.52,0-6.37-2.85-6.37-6.37c0-3.52,2.85-6.37,6.37-6.37
		C178.04,228.09,180.89,230.95,180.89,234.46"/>
	<path class="st1" d="M180.21,234.46c-0.39,7.34-10.99,7.34-11.38,0c-0.17-3.22,2.72-5.53,5.69-5.69
		C177.74,228.6,180.05,231.49,180.21,234.46c0.04,0.87,1.4,0.87,1.35,0c-0.49-9.07-13.6-9.07-14.09,0
		c-0.21,3.98,3.38,6.85,7.05,7.04c3.98,0.22,6.85-3.38,7.04-7.04C181.61,233.59,180.26,233.59,180.21,234.46"/>
	<path class="st0" d="M127.04,239.21c0,3.79-3.07,6.86-6.86,6.86c-3.79,0-6.86-3.07-6.86-6.86c0-3.79,3.07-6.86,6.86-6.86
		C123.97,232.35,127.04,235.42,127.04,239.21"/>
	<path class="st1" d="M126.32,239.21c-0.43,7.9-11.83,7.9-12.26,0c-0.19-3.47,2.93-5.96,6.13-6.13
		C123.65,232.89,126.14,236.01,126.32,239.21c0.05,0.93,1.51,0.94,1.46,0c-0.53-9.77-14.65-9.77-15.17,0
		c-0.23,4.29,3.64,7.37,7.58,7.58c4.29,0.23,7.37-3.64,7.59-7.58C127.82,238.27,126.37,238.28,126.32,239.21"/>
	<path class="st0" d="M171.35,238.68c0,3.79-3.07,6.86-6.86,6.86s-6.86-3.07-6.86-6.86c0-3.79,3.07-6.86,6.86-6.86
		S171.35,234.89,171.35,238.68"/>
	<path class="st1" d="M170.63,238.68c-0.43,7.9-11.83,7.9-12.26,0c-0.19-3.46,2.93-5.96,6.13-6.13
		C167.96,232.36,170.45,235.49,170.63,238.68c0.05,0.93,1.51,0.94,1.46,0c-0.53-9.77-14.65-9.77-15.17,0
		c-0.23,4.29,3.64,7.37,7.58,7.58c4.29,0.23,7.37-3.64,7.59-7.58C172.13,237.74,170.68,237.75,170.63,238.68"/>
	<path class="st0" d="M161.03,243.59c0,3.79-3.07,6.86-6.86,6.86s-6.86-3.07-6.86-6.86c0-3.79,3.07-6.86,6.86-6.86
		S161.03,239.8,161.03,243.59"/>
	<path class="st1" d="M160.3,243.59c-0.43,7.9-11.83,7.9-12.26,0c-0.19-3.46,2.93-5.96,6.13-6.13
		C157.63,237.27,160.13,240.39,160.3,243.59c0.05,0.93,1.51,0.94,1.46,0c-0.53-9.77-14.65-9.77-15.17,0
		c-0.23,4.29,3.64,7.37,7.58,7.58c4.29,0.23,7.37-3.64,7.59-7.58C161.81,242.65,160.35,242.66,160.3,243.59"/>
	<path class="st0" d="M137.59,243.43c0,3.79-3.07,6.86-6.86,6.86c-3.79,0-6.86-3.07-6.86-6.86c0-3.79,3.07-6.86,6.86-6.86
		C134.52,236.57,137.59,239.64,137.59,243.43"/>
	<path class="st1" d="M136.86,243.43c-0.43,7.9-11.83,7.9-12.26,0c-0.19-3.47,2.93-5.96,6.13-6.13
		C134.2,237.11,136.69,240.23,136.86,243.43c0.05,0.93,1.51,0.94,1.46,0c-0.53-9.77-14.65-9.77-15.17,0
		c-0.23,4.29,3.64,7.37,7.58,7.58c4.29,0.23,7.37-3.64,7.59-7.58C138.37,242.49,136.91,242.5,136.86,243.43"/>
	<path class="st0" d="M149.84,245.17c0,3.79-3.07,6.86-6.86,6.86s-6.86-3.07-6.86-6.86c0-3.79,3.07-6.86,6.86-6.86
		S149.84,241.38,149.84,245.17"/>
	<path class="st1" d="M149.11,245.17c-0.43,7.9-11.83,7.9-12.26,0c-0.19-3.47,2.93-5.96,6.13-6.13
		C146.44,238.85,148.94,241.97,149.11,245.17c0.05,0.93,1.51,0.94,1.46,0c-0.53-9.77-14.65-9.77-15.17,0
		c-0.23,4.29,3.64,7.37,7.58,7.58c4.29,0.23,7.37-3.64,7.59-7.58C150.62,244.23,149.16,244.24,149.11,245.17"/>
</g>
<g>
	<path class="st1" d="M148.25,243.74c2.11-0.24,4.13-0.74,6.09-1.47l0.92-0.36c2.92-1.2,5.72-2.91,8.5-5.06l0.79-0.6
		c0.02-0.02,0.04-0.04,0.06-0.05c2.46-0.38,5.8-1.06,9.73-2.38l0.94-0.33c2.58-0.91,5.38-2.08,8.34-3.62l0.9-0.47
		c2.37-1.27,4.83-2.77,7.35-4.54l0.84-0.6c1.45-1.05,2.92-2.2,4.4-3.44l0.8-0.67c0.31-0.27,0.62-0.55,0.94-0.84
		c7.11,6.26,37.9,15.7,51.25,3.53c1.89-0.35,3.84-0.88,5.83-1.67c5.08-2.03,8.55-5.05,9.79-8.53c2.87-8.03-7.74-23.41-8.37-23.2
		c-0.64,0.2,0.19,6.46-1.71,13.09c-0.61,2.11-2.26,7.01-6.48,8.5c-3.24-2.5-4.6-7.66-3.84-14.62c0.54-4.85,2.86-9.69,5.07-14.51
		c5.16-11.25,10.78-23.8-2.25-44.4c-6.78-10.71-15.14-15.03-24.34-17.14c0.91-12.33-10.62-23.49-15.19-27
		c4.22-8.25,5.23-17.55,4.29-26.53c3.02-4.98,5.58-11.87,0.29-15.6c-5.17-3.65-18.87-2.33-30.37,9.7
		c-2.59,2.71-5.74,6.64-8.02,12.56c-8.9-7.93-23.71-1.71-27.98,4.82c-2.08-1.95-6.08-4.69-11.93-5.8
		c-7.02-1.33-12.01-1.1-15.24-0.17c-3.47-7.75-9.01-12.51-14.3-14.91c-7.1-3.23-14.75-2.49-19.39,2.15
		c-2.28,2.28-2.11,9.31,1.67,12.24c-1.91,5.61-1.41,12.93,0.59,19.49c-10.99,9.26-8.83,23.19-10.26,30.63
		c-2.78,5.44-5.84,11.3-7.62,14.09c-13.25,8.13-23.95,19.1-28.29,29.35c-10.69,25.23-5.88,46.59,14.22,61.51
		c4.96,3.68,10.76,5.87,14.94,7.4c4.74,1.74,7.96,2.91,9.29,5.92c0.46,1.05,0.63,2.27,0.64,3.52c-7.99,3.33-17.19-3.29-17.73-2.91
		c-0.59,0.41,4.26,14.31,16.49,17.26c4.22,1.01,8.64,0.03,12.11-2.63l1.16-0.99c3.85-3.58,5.59-8.27,6.14-12.97
		c2.18-1.96,3.84-5.64,4.48-9.76l0.78-4.56c1.4,0.85,3.28,1.61,5.38,2.32l1.02,0.34c1.84,0.59,3.8,1.16,5.71,1.72l1.18,0.36
		c2.43,0.73,4.69,1.48,6.44,2.31l0.85,0.56c1.89,2.39,3.77,4.21,5.65,5.56l0.93,0.62c3.16,2.03,6.32,2.86,9.49,3.07"/>
	<path class="st2" d="M263.8,212.09c-1.11,3.11-4.12,5.49-8.83,7.37c-6.31,2.51-12.34,2.22-17.47,1.06
		c-11.62-2.62-18.02-10.96-18.51-10.64c-0.5,0.33,4.91,9.31,18.1,12.61c2.64,0.66,5.79,1.03,9.22,0.83
		c-10.87,7.95-39.21,0.77-46.46-4.9c3.94-3.63,7.91-7.99,11.77-13.25c9.36-12.75,8.17-23.59,4.03-34.1
		c11.96,15.9,10.4,32.45,11.13,32.48c0.7,0.04,3.5-18.44-13.37-37.64c-0.99-2.09-2.04-4.18-3.1-6.28c-4.39-8.68-9.2-17.5-9.23-27.63
		c6.23,1.55,12.37,3.8,17.88,7.8c11.64,8.43,16.16,24.9,16.95,24.66c0.6-0.18-2.85-16.59-15.83-26.27
		c-9.07-6.76-20.05-8.61-30.15-10.38c-8.32-1.45-18.73-3.47-23.85-7.78c-6.96-5.86-8.48-15.35-9.07-15.23
		c-0.4,0.08,0.49,9.52,6.86,15.54c-7.49-1.47-14.05-13.9-13.24-22c0.23-1.48,0.25-2.4,0.16-2.43c-0.37-0.12-3.79,6.76-10.42,14.31
		c-5.01,5.7-19.27,15.22-19.1,15.53c0.17,0.32,16.68-5.09,27.54-24.64c-3.5,12.15-11.22,19.94-20.12,25.64
		c-10.6,6.78-24.36,10.58-35.04,14c9.56-4.88,16.66-7.87,16.42-8.46c-0.35-0.83-22.62,8.13-39.14,19.32
		c-8.66,5.87-15.32,11.93-20,18.09c-7.01,9.21-8.08,18.14-7.41,18.24c0.51,0.08,1.27-7.8,8.68-17.08
		c4.29-5.37,10.61-11.24,19.76-17.48c4.85-3.31,9.89-6.3,14.65-8.92c0.14-0.04,0.29-0.09,0.43-0.13c-1.54,2.72-3.36,5.23-5.42,8.04
		c-2.19,2.99-4.49,6.2-6.47,9.81c-4.08,7.4-4.83,14.57-4.59,14.61c0.38,0.07,1.54-6.92,5.42-13.64c2.04-3.53,4.44-6.71,6.76-9.88
		c2.27-3.09,4.63-6.44,6.31-9.55c0.84-0.25,1.73-0.51,2.66-0.77c-1.53,6.13-4.62,11.8-7.54,17.51c-2.77,5.42-5.7,11.03-7.29,16.84
		c-2.52,9.23-2,19.38,6.67,31.25c-6.84-1.47-14.54-5.48-19.56-11.15c-6.19-6.98-5.38-14.69-5.95-14.73c-0.46-0.03-2,7.98,4.66,15.71
		c5.77,6.7,15.23,11.4,22.8,12.44c10.72,1.47,14.44,7.08,15.91,11.66c1.91,5.96,0.74,12.77-1.87,16.7
		c0.37-9.21-3.25-15.96-3.79-15.69c-0.43,0.22,3.31,8.18,1.95,17.69c-0.64,4.48-2.44,8.94-6.25,12.26
		c-3.23,2.82-6.74,3.8-10.83,2.82c-5.86-1.41-11.84-6.31-15.18-12.98c5.38,3.33,11.45,4.19,15.68,2.06
		c-0.33,3.39-1.53,6.53-1.34,6.61c0.33,0.14,4.88-6.76,2.52-12.28c-1.51-3.54-5.41-5.08-10.43-6.93c-4.32-1.59-9.6-3.64-14.41-7.21
		c-19.21-14.25-24.09-34.65-13.66-59.27c4.27-10.07,14.35-20.43,27.5-28.43c11.9-7.25,29.83-12.79,38.22-16.03
		c18.67-7.22,27.85-16.44,27.58-16.77c-0.32-0.39-11.96,9.1-28.08,15.35c-8.72,3.38-23.81,7.34-35.95,14.07
		c5.83-9.96,16.81-31.24,16.44-31.53c-0.42-0.32-4.16,4.9-9.52,15.14c1.07-7.61,1.63-18.9,8.73-25.39
		c2.07,6.05,5.39,11.27,9.24,13.56c-7.26,6.54-9.11,13.03-8.53,13.26c0.7,0.28,3.96-9.72,17.45-17.3
		c5.92-3.33,10.53-5.16,16.02-7.14c8.74-3.15,12.95-6.32,12.77-6.57c-0.21-0.28-7.92,2.94-12.56,4.64
		c0.37-7.63-0.71-13.89-2.65-18.99c3.05-0.89,7.51-1.3,13.91,0.19c9.04,2.11,13.86,6.47,14.15,6.09c0.07-0.09-0.17-0.53-0.72-1.16
		c3.92-6.45,19.57-10.86,26.56-4.42c-1.64,4.75-2.72,10.68-2.58,18.19c-8.02-3.6-9.52-5.92-9.73-5.76
		c-0.87,0.65,3.15,6.03,18.14,11.02c23.23,7.74,27.45,15.7,27.74,15.5c0.23-0.16-0.63-4.2-8.19-9.01c3.53-3.09,6.25-6.55,8.31-10.24
		c4.49,3.67,14.98,16.33,14.52,25.53c-4.5-0.93-9.17-1.39-13.95-1.85c-7.48-0.71-15.41-1.56-23.03-4.04
		c-9.58-3.12-17.27-9.75-17.63-9.35c-0.3,0.34,6.64,7.42,17.02,11.02c7.69,2.67,15.87,3.52,23.43,4.24
		c13.94,1.33,28.19,2.61,38.15,18.35c12.65,20.01,7.35,31.43,2.08,42.92c-2.25,4.91-4.46,9.95-5.02,15.01
		c-0.89,8.11,1.33,14.15,5.7,16.61c6.41,3.61,12.45-2.07,12.05-2.59c-0.28-0.36-5.8,3.66-10.61,1.61
		c6.84-2.68,7.84-12.43,7.65-19.01C259.86,195.76,265.81,206.47,263.8,212.09"/>
	<path class="st3" d="M122.61,231.93c-6.01-2.63-14.46-4.15-18.76-7.22c-0.15-0.99-0.37-1.97-0.68-2.91
		c-1.55-4.84-5.96-11.03-16.86-12.74c-9.06-11.87-10.3-21.87-7.78-31.06c2.15-7.84,5.35-13.35,7.1-16.79
		c3.06-5.99,6-11.74,7.47-18.67c4.18-1.18,9.1-2.55,14.22-4.21c-0.85,1.43-1.67,3.44-1.71,5.1c-1.32-0.25-2.45-0.45-2.61-0.31
		c-0.37,0.32,0.1,2.27,3.15,3.53c-2.96,0.07-6.07-0.51-6.29,0.1c-0.22,0.61,1.74,2.25,4.82,2.87c-2.01,0.44-5.75-0.2-5.91,0.33
		s2.74,2.49,4.56,2.58c1.78,0.09,3.56-0.28,4.78-0.95c7.28,8.04,16.46,9.81,23.96,5.2c7.01-4.31,10.29-12.71,8.14-19.38
		c0.39-0.05,0.64-0.12,0.67-0.21c0.08-0.27-0.3-0.79-1.15-1.36c-1.23-3.55-5.26-7.16-8.38-8.38c6.05-4.1,11.25-9.42,14.96-16.45
		c1.37-2.6,2.35-5.15,3.04-7.39c1.3,8.9,7.95,18.71,16.21,18.13c6.33,4.77,15.16,6.4,23.99,7.95c3.36,0.59,6.79,1.2,10.21,2
		c-0.12,11.53,4.28,19.94,8.78,28.81c7.05,13.93,13.8,26.73,1.5,43.48c-17.49,23.83-37.76,29.45-43.66,30.62
		c2.55-2.4,6.73-6.58,6.44-6.87c-0.34-0.34-5.16,3.39-9.37,7c-4.56,3.9-11.11,7.85-20.86,7.47c-9.1-0.35-12.67-4.55-17.12-9.51
		c-3.53-3.93-8.11-6.98-8.36-6.66C117.02,226.16,119.66,228.74,122.61,231.93"/>
	<path class="st1" d="M174.94,213.96c2.97-5.21,5-13.34,4.13-20.93c-0.67-5.84-3.35-10.45-7.36-13.05
		c-9.68-6.29-26.6-6.47-38.97-3.82c-9.02,1.94-15.85,5.43-18.3,9.23c-5.11,7.95-3,20.46,1.45,28.08c-2.58,4.02-7.79,5.67-7.54,6.44
		c0.17,0.52,6.07-1.75,8.44-5.01c0.99,1.45,2.06,2.67,3.18,3.55c1.18,0.93,2.67,1.61,4.29,2.14c3.76,2.48,12.96,14.75,23.32,14.25
		c7.12-0.34,10.21-4.8,12.64-8.62c1.44-2.26,3.17-4.74,5.21-5.74c2.91-0.55,5.5-1.5,7.06-3.12c0.53-0.55,1.04-1.19,1.54-1.92
		c2.51,3.56,8.5,5.23,8.6,4.99C182.8,219.99,177.51,217.99,174.94,213.96"/>
	<path class="st3" d="M171.44,215.86c-4.24,4.4-20.48,3.52-22.28,3.59c-9.91,0.43-20.86,2.61-27.92-2.54
		c-5.83-4.25-11.65-20.62-5.15-30.74c2.23-3.46,8.58-6.45,17.14-8.29c12.12-2.61,28.22-2.43,37.59,3.65
		c3.72,2.42,5.72,6.2,6.36,11.72C178.23,202.36,174.49,212.69,171.44,215.86"/>
	<path class="st1" d="M208.24,135.88c-0.4,0.69,8.96,5.25,15.22,19.3c5.38,12.06,5.3,25.11,6.08,25.09
		c0.41-0.01,0.77-13.44-4.71-25.68C218.08,139.53,208.36,135.67,208.24,135.88"/>
	<path class="st1" d="M126.94,202.98c1.08,5.83,2.56,7.64,4.09,7.46c2.38-0.28,1.87-3.65,1.61-3.68c-0.26-0.04-0.67,2.52-1.73,2.56
		c-0.62,0.03-1.71-1.31-2.65-6.35c-0.96-5.19,0.9-8.63,1.66-8.4c0.94,0.28,1.31,2.74,1.58,2.72c0.27-0.03,0.41-3.27-1.19-3.88
		C127.71,192.44,125.82,196.96,126.94,202.98"/>
	<path class="st1" d="M158.79,196.16c0.26,0.06,1.33-2.1,1.85-2.01c0.93,0.16,2.13,2.75,1.51,8.01c-0.64,5.44-1.74,6.89-2.38,6.94
		c-0.33,0.03-1.25-1.43-1.5-1.35c-0.25,0.08-0.31,2.16,1.59,2.32c1.9,0.16,3.15-2.99,3.72-7.85c0.65-5.48-1.03-9.06-2.82-9.24
		C159.08,192.81,158.53,196.1,158.79,196.16"/>
	<path class="st4" d="M158.73,225.23c-2.38,3.73-4.7,7.42-11.15,7.73c-7.55,0.36-14.44-7.11-19.98-11.55
		c2.64,0.46,5.48,0.6,8.21,0.57c3.16,3.6,14.51,8.89,21.47-0.8c1.6-0.02,3.27-0.09,4.93-0.25
		C160.86,222.06,159.77,223.59,158.73,225.23"/>
	<path class="st5" d="M137.24,221.95c5.46-0.16,10.24-0.89,11.59-0.94c1.02-0.04,3.82,0.16,7.19,0.17
		C150.51,227.8,140.7,224.69,137.24,221.95"/>
	<path class="st1" d="M50.6,192.8c2.05,14.17,10.04,21.07,10.37,20.78c0.28-0.26-7.18-8.24-9-21.04c-1.51-10.61,1.9-21.4,1.56-21.52
		C53.03,170.84,49.02,181.83,50.6,192.8"/>
	<path class="st1" d="M115.26,102.99c-10.58,6.96-16.24,14.14-15.9,14.45c0.3,0.26,7.79-7.4,16.8-13.29
		c10.9-7.12,20.17-8.38,20.09-8.95C136.17,94.55,127,95.26,115.26,102.99"/>
	<path class="st1" d="M190.78,147.44c3.1-0.93,4.61-3.29,4.37-3.65c-0.25-0.36-4.58,0.49-5.89,0.12c2.52-1.6,3.54-4.38,3.2-4.69
		c-0.22-0.2-2.21,0.34-4.05,0.77c-0.16-0.4-0.31-0.8-0.48-1.18c0.32-0.4,0.48-0.75,0.36-0.92c-0.06-0.09-0.37-0.07-0.83-0.01
		c-4.57-9.03-12.55-11.16-16.95-11.21c-6.51-0.07-12.13,3.62-14.33,10.04c-1.32,1.58-1.99,3.42-1.73,3.6
		c0.06,0.04,0.23,0.04,0.44,0.01c-1.1,10.27,5.26,16.43,12.15,18.61c4.94,1.56,14.17,2.26,20.2-8.12c7.15,0.21,8.86-3.29,8.78-3.46
		C195.92,147.17,191.63,147.48,190.78,147.44"/>
	<path class="st0" d="M187.45,140.2c-0.63,0.13-1.19,0.23-1.6,0.25c0.5-0.26,0.95-0.57,1.34-0.9
		C187.28,139.76,187.36,139.99,187.45,140.2"/>
	<path class="st6" d="M170.48,128.12c5.49,0.06,12.17,3.08,15.95,9.92c-1.89,0.32-4.65,0.81-5.6,0c-6.48-5.51-15.5-5.74-23.03-2.12
		C159.39,131.72,165.14,128.07,170.48,128.12"/>
	<path class="st7" d="M160.99,141.99c0-0.31,0.04-0.61,0.07-0.91c0.62,0,2.55,0.19,4.44,0.42c0.07,0.5,0.19,1,0.37,1.45l-4.44,1.95
		C161.14,143.99,160.99,143.01,160.99,141.99"/>
	<path class="st7" d="M165.43,140.52c-2.4-0.29-3.61-0.39-4.25-0.39c0.08-0.42,0.17-0.83,0.3-1.22c1.32-0.15,2.75-0.22,4.25-0.2
		C165.55,139.28,165.44,139.88,165.43,140.52"/>
	<path class="st7" d="M166.28,143.83c0.57,0.94,1.39,1.67,2.34,2.09l-0.47,5.42c-2.88-0.62-5.25-2.72-6.41-5.51L166.28,143.83z"/>
	<path class="st7" d="M169.57,146.21c0.27,0.05,0.55,0.1,0.84,0.1c0.81,0,1.57-0.25,2.25-0.64l3.06,3.62
		c-1.56,1.39-3.57,2.24-5.76,2.24c-0.28,0-0.56-0.02-0.84-0.04L169.57,146.21z"/>
	<path class="st7" d="M176.4,148.6l-2.96-3.5c0.52-0.46,0.95-1.02,1.28-1.68l3.83,1.27C178.13,146.18,177.38,147.51,176.4,148.6"/>
	<path class="st7" d="M178.92,141.99c0,0.6-0.06,1.18-0.16,1.75l-3.68-1.23c0.18-0.59,0.31-1.21,0.31-1.87
		c0-0.13-0.03-0.25-0.04-0.39c0.47,0.16,0.94,0.32,1.4,0.51c0.76,0.31,1.47,0.67,2.15,1.04
		C178.9,141.87,178.92,141.93,178.92,141.99"/>
	<path class="st0" d="M167.49,157.57c-6.59-2.08-12.58-7.58-11.6-17.45c1.25-0.3,3.05-0.82,4.53-1.07c-0.26,0.94-0.4,1.93-0.4,2.95
		c0,5.79,4.46,10.5,9.93,10.5c5.36,0,9.73-4.51,9.92-10.13c3.13,1.95,5.33,4.6,6.38,8.1c0,0.01,0.01,0.01,0.02,0.02
		C181.82,157.83,173.19,159.37,167.49,157.57"/>
	<path class="st0" d="M171.17,141.01c0-0.73,0.69-1.32,1.54-1.32s1.54,0.59,1.54,1.32c0,0.73-0.69,1.32-1.54,1.32
		S171.17,141.74,171.17,141.01"/>
	<path class="st0" d="M126.92,139.76c0-0.72,0.63-1.3,1.4-1.3c0.78,0,1.41,0.58,1.41,1.3c0,0.72-0.63,1.3-1.41,1.3
		C127.55,141.06,126.92,140.47,126.92,139.76"/>
	<path class="st7" d="M119.66,149.72c-1.12-1.02-2-2.32-2.56-3.81l4.38-2.07c0.42,0.74,1.01,1.37,1.72,1.83L119.66,149.72z"/>
	<path class="st7" d="M124.1,146.14c0.62,0.25,1.29,0.39,1.99,0.39c0.27,0,0.54-0.04,0.8-0.08l0.26,5.49
		c-0.49,0.09-1,0.14-1.52,0.14c-1.94,0-3.73-0.65-5.22-1.75L124.1,146.14z"/>
	<path class="st7" d="M116.81,144.99c-0.07-0.26-0.14-0.53-0.19-0.8c1.28-0.92,2.67-1.84,4.18-2.69c0.03,0.51,0.13,1,0.29,1.47
		L116.81,144.99z"/>
	<path class="st0" d="M125.63,153.07c5.6,0,10.16-4.86,10.16-10.84c0-1.67-0.38-3.25-1.02-4.66c1.66-0.04,3.3-0.04,4.47-0.09
		c2.1,6.2-1.43,14.11-7.9,18.09c-3.42,2.1-12.22,5.91-22.39-4.59c0.06-0.06,0.13-0.11,0.18-0.17c0.91-1.01,3.28-3.46,6.64-6
		C116.86,149.54,120.86,153.07,125.63,153.07"/>
	<path class="st7" d="M131.32,140.37c-0.15-0.94-0.55-1.78-1.13-2.49c0.97-0.16,2.21-0.24,3.5-0.28c0.37,0.74,0.65,1.53,0.84,2.36
		L131.32,140.37z"/>
	<path class="st7" d="M134.69,140.91c0.01,0,0.01-0.01,0.01-0.01c0.06,0.44,0.12,0.88,0.12,1.33c0,1.48-0.31,2.87-0.85,4.13
		l-3.65-1.95c0.65-0.86,1.05-1.92,1.08-3.07L134.69,140.91z"/>
	<path class="st7" d="M133.54,147.23c-1.19,2.17-3.13,3.8-5.43,4.5l-0.26-5.51c0.67-0.24,1.28-0.6,1.79-1.07L133.54,147.23z"/>
	<path class="st6" d="M133.86,133.83c-4.12-0.64-8.99-0.34-12.6,1.4c-4.09,1.97-8.69,6.6-8.86,6.64c-0.31,0.04-3.79-1.45-4.28-0.92
		c-0.49,0.53,0.92,2.52,2.06,3.02c-0.64,0.14-2.11-0.09-3.56-0.36c0.04-1.84,1.71-4.65,2.8-5.98c7.1-2.4,14.42-5.39,20.53-9.26
		c2.49,0.6,6.61,3.68,8.35,6.67C137.2,134.57,135.74,134.12,133.86,133.83"/>
	<path class="st3" d="M184.31,62.14c10.85-11.35,22.87-12.65,27.53-9.36c5.61,3.96-0.09,13.46-0.15,13.56
		c-0.08,0.12-0.11,0.28-0.1,0.42c0.17,1.47,1.49,24.72-13.05,37.31c-1.84-1.09-4.03-2.22-6.63-3.33c9.5-7.71,10.13-26.45,10.9-33v0
		c4.47-1.87,6.28-4.72,6.15-4.83c-0.26-0.24-2.88,2.37-8.48,4.12c-5.98,1.87-9.93,1.35-9.99,1.92c-0.01,0.18,0.49,0.41,1.41,0.54
		c-4.01,3.23-13.45,14.77-12.2,26.69c-2.57-0.9-4.79-1.77-6.67-2.57C172.7,77.56,180.42,66.22,184.31,62.14"/>
	<path class="st3" d="M190.87,100.31c-3.36-1.39-6.99-2.67-10.13-3.76c-1.18-10.39,8.18-24.1,12.63-26.93
		c2.01,0.06,4.96-0.24,8.43-1.47C200.84,76.19,198.65,94.22,190.87,100.31"/>
	<path class="st3" d="M88.95,71.83c0.11-0.29-0.01-0.62-0.27-0.78c-1.54-0.94-3.55-7.88-1.11-10.32c4.03-4.03,10.32-4.5,16.96-1.48
		c10.64,4.84,18.08,18.25,17.21,34.37c-1.9,0.69-3.82,1.39-5.79,2.18c-0.32-9.86-6.77-18.1-10.45-20.98
		c1.81,0.06,3.05-0.08,3.05-0.29c0.01-0.35-4.47-0.5-10.29-2.32c-4.56-1.43-7.19-3.77-7.52-3.43c-0.09,0.09,1.19,2.39,5.41,4.15
		c-2.5,8.27,0.52,22.89,8.97,28.08c-2.38,1.39-4.45,2.86-6.21,4.34C91.26,101.1,85.68,80.55,88.95,71.83"/>
	<path class="st3" d="M114.99,96.19c-2.84,1.16-5.77,2.52-8.87,4.25c-8.48-4.81-10.69-21.17-9.05-27.16
		c1.64,0.59,3.76,1.13,6.52,1.4C106.19,76.01,114.73,86.18,114.99,96.19"/>
</g>
</svg>
