<svg width="24" height="24" viewBox="0 0 24 24" fill="none" xmlns="http://www.w3.org/2000/svg">
<g clip-path="url(#clip0_322_17208)">
<path d="M18.9223 12.4617H17.5377C17.2829 12.4617 17.0762 12.2549 17.0762 12.0001C17.0762 11.7453 17.2829 11.5386 17.5377 11.5386H18.9223C19.1771 11.5386 19.3839 11.7453 19.3839 12.0001C19.3839 12.2549 19.1771 12.4617 18.9223 12.4617Z" fill="#FBD490"/>
<path d="M23.5379 12.4617H22.6149C22.3601 12.4617 22.1533 12.2549 22.1533 12.0001C22.1533 11.7453 22.3601 11.5386 22.6149 11.5386H23.5379C23.7927 11.5386 23.9995 11.7453 23.9995 12.0001C23.9995 12.2549 23.7927 12.4617 23.5379 12.4617Z" fill="#FBD490"/>
<path d="M20.4846 20.4851C15.7982 25.1716 8.20033 25.1716 3.51387 20.4851C-1.17259 15.7987 -1.17259 8.20082 3.51387 3.51436C8.20033 -1.1721 15.7982 -1.1721 20.4846 3.51436L11.9993 11.9997L20.4846 20.4851Z" fill="#F0C419"/>
<path d="M10.6151 6.92304C11.3798 6.92304 11.9997 6.30313 11.9997 5.53842C11.9997 4.77372 11.3798 4.15381 10.6151 4.15381C9.85038 4.15381 9.23047 4.77372 9.23047 5.53842C9.23047 6.30313 9.85038 6.92304 10.6151 6.92304Z" fill="#556080"/>
</g>
<defs>
<clipPath id="clip0_322_17208">
<rect width="24" height="24" fill="white"/>
</clipPath>
</defs>
</svg>
